<?xml version="1.0" encoding="UTF-8" standalone="no"?>
<svg
   xmlns:dc="http://purl.org/dc/elements/1.1/"
   xmlns:cc="http://creativecommons.org/ns#"
   xmlns:rdf="http://www.w3.org/1999/02/22-rdf-syntax-ns#"
   xmlns:svg="http://www.w3.org/2000/svg"
   xmlns="http://www.w3.org/2000/svg"
   viewBox="0 0 1336 1336"
   height="1336"
   width="1336"
   xml:space="preserve"
   id="svg2"
   version="1.1"><metadata
     id="metadata8"><rdf:RDF><cc:Work
         rdf:about=""><dc:format>image/svg+xml</dc:format><dc:type
           rdf:resource="http://purl.org/dc/dcmitype/StillImage" /></cc:Work></rdf:RDF></metadata><defs
     id="defs6"><clipPath
       id="clipPath18"
       clipPathUnits="userSpaceOnUse"><path
         id="path16"
         d="M 0,1002 H 1002 V 0 H 0 Z" /></clipPath></defs><g
     transform="matrix(1.3333333,0,0,-1.3333333,0,1336)"
     id="g10"><g
       id="g12"><g
         clip-path="url(#clipPath18)"
         id="g14"><g
           transform="translate(79.3734,469.3238)"
           id="g20"><path
             id="path22"
             style="fill:#eb008b;fill-opacity:1;fill-rule:evenodd;stroke:none"
             d="m 0,0 c 0,-15.653 -16.496,-28.342 -36.844,-28.342 -20.349,0 -36.845,12.689 -36.845,28.342 v 340.102 c 0,15.653 16.496,28.342 36.845,28.342 C -16.496,368.444 0,355.755 0,340.102 Z" /></g><g
           transform="translate(232.1971,339.2848)"
           id="g24"><path
             id="path26"
             style="fill:#de2183;fill-opacity:1;fill-rule:evenodd;stroke:none"
             d="m 0,0 c 0,-15.653 -16.496,-28.342 -36.844,-28.342 -20.349,0 -36.845,12.689 -36.845,28.342 v 583.508 c 0,15.653 16.496,28.342 36.845,28.342 C -16.496,611.85 0,599.161 0,583.508 Z" /></g><g
           transform="translate(385.0208,189.2397)"
           id="g28"><path
             id="path30"
             style="fill:#eb008b;fill-opacity:1;fill-rule:evenodd;stroke:none"
             d="m 0,0 c 0,-15.653 -16.496,-28.342 -36.844,-28.342 -20.349,0 -36.845,12.689 -36.845,28.342 v 686.873 c 0,15.653 16.496,28.342 36.845,28.342 C -16.496,715.215 0,702.526 0,686.873 Z" /></g><g
           transform="translate(537.8444,79.2067)"
           id="g32"><path
             id="path34"
             style="fill:#eb008b;fill-opacity:1;fill-rule:evenodd;stroke:none"
             d="m 0,0 c 0,-15.653 -16.496,-28.342 -36.844,-28.342 -20.349,0 -36.845,12.689 -36.845,28.342 v 730.219 c 0,15.653 16.496,28.342 36.845,28.342 C -16.496,758.561 0,745.872 0,730.219 Z" /></g><g
           transform="translate(690.668,189.2397)"
           id="g36"><path
             id="path38"
             style="fill:#eb008b;fill-opacity:1;fill-rule:evenodd;stroke:none"
             d="m 0,0 c 0,-15.653 -16.496,-28.342 -36.844,-28.342 -20.349,0 -36.845,12.689 -36.845,28.342 v 686.873 c 0,15.653 16.496,28.342 36.845,28.342 C -16.496,715.215 0,702.526 0,686.873 Z" /></g><g
           transform="translate(843.4917,339.2848)"
           id="g40"><path
             id="path42"
             style="fill:#eb008b;fill-opacity:1;fill-rule:evenodd;stroke:none"
             d="m 0,0 c 0,-15.653 -16.496,-28.342 -36.844,-28.342 -20.349,0 -36.845,12.689 -36.845,28.342 v 583.508 c 0,15.653 16.496,28.342 36.845,28.342 C -16.496,611.85 0,599.161 0,583.508 Z" /></g><g
           transform="translate(996.3154,469.3238)"
           id="g44"><path
             id="path46"
             style="fill:#eb008b;fill-opacity:1;fill-rule:evenodd;stroke:none"
             d="m 0,0 c 0,-15.653 -16.496,-28.342 -36.844,-28.342 -20.349,0 -36.845,12.689 -36.845,28.342 v 340.102 c 0,15.653 16.496,28.342 36.845,28.342 C -16.496,368.444 0,355.755 0,340.102 Z" /></g></g></g></g></svg>